<svg width="1158" height="140" viewBox="0 0 1158 140" fill="none" xmlns="http://www.w3.org/2000/svg">
<path d="M10.104 19.496L0.12 17.832V9.896H19.192C22.0933 9.896 25.848 9.72533 30.456 9.384C31.5653 9.29866 32.888 9.21333 34.424 9.128C35.96 9.04266 37.752 8.99999 39.8 8.99999C52.6853 8.99999 61.688 10.8347 66.808 14.504C72.0133 18.088 74.616 23.464 74.616 30.632C74.616 36.9467 72.696 42.2373 68.856 46.504C65.1013 50.6853 60.152 53.2453 54.008 54.184C62.456 54.0987 69.0693 56.0187 73.848 59.944C78.712 63.8693 81.144 69.3307 81.144 76.328C81.144 85.2027 78.0293 92.328 71.8 97.704C65.5707 103.08 55.16 105.768 40.568 105.768C36.728 105.768 33.1867 105.64 29.944 105.384C29.0907 105.384 27.64 105.299 25.592 105.128C23.544 105.043 21.4533 105 19.32 105H-0.0079999V97.32L10.104 96.04V19.496ZM28.664 51.368C29.6027 51.4533 31.5227 51.496 34.424 51.496H40.44C45.6453 51.496 49.528 49.8747 52.088 46.632C54.648 43.3893 55.928 38.824 55.928 32.936C55.928 27.304 54.6053 23.208 51.96 20.648C49.3147 18.088 44.92 16.808 38.776 16.808C37.1547 16.808 33.784 16.9787 28.664 17.32V51.368ZM28.664 96.552C30.6267 97.32 34.3813 97.704 39.928 97.704C47.1813 97.704 52.4293 95.9973 55.672 92.584C58.9147 89.1707 60.536 84.2213 60.536 77.736C60.536 71.5067 59.0427 67.0693 56.056 64.424C53.1547 61.6933 48.504 60.328 42.104 60.328C34.936 60.328 30.456 60.4133 28.664 60.584V96.552ZM125.826 106.408C114.562 106.408 106.157 103.123 100.61 96.552C95.1487 89.896 92.418 80.8507 92.418 69.416C92.418 61.736 93.826 55.08 96.642 49.448C99.5433 43.816 103.597 39.5067 108.802 36.52C114.007 33.5333 120.023 32.04 126.85 32.04C135.383 32.04 141.954 34.3013 146.562 38.824C151.17 43.2613 153.559 49.6187 153.73 57.896C153.73 63.528 153.389 67.7093 152.706 70.44H111.106C111.447 78.2053 113.282 84.264 116.61 88.616C119.938 92.8827 124.674 95.016 130.818 95.016C134.146 95.016 137.559 94.4613 141.058 93.352C144.642 92.2427 147.458 90.92 149.506 89.384L152.706 96.424C150.402 98.8987 146.647 101.203 141.442 103.336C136.322 105.384 131.117 106.408 125.826 106.408ZM135.81 62.76C135.981 60.3707 136.066 58.536 136.066 57.256C136.066 45.9067 132.269 40.232 124.674 40.232C120.493 40.232 117.25 41.896 114.946 45.224C112.642 48.552 111.362 54.3973 111.106 62.76H135.81ZM166.505 97.448L174.953 96.424V45.992L166.761 43.688V34.856L186.601 32.168H186.985L190.185 34.728V37.544L189.801 47.912H190.185C190.782 46.2053 192.19 44.1147 194.409 41.64C196.628 39.08 199.401 36.8613 202.729 34.984C206.142 33.0213 209.812 32.04 213.737 32.04C215.614 32.04 217.236 32.296 218.601 32.808V52.008C216.041 50.216 212.926 49.32 209.257 49.32C203.028 49.32 197.609 50.984 193.001 54.312V96.296L207.849 97.448V105H166.505V97.448ZM250.819 106.152C245.443 106.152 241.475 104.915 238.915 102.44C236.355 99.9653 235.075 96.04 235.075 90.664V43.688H226.755V37.032C227.438 36.776 228.675 36.3493 230.467 35.752C232.259 35.0693 233.624 34.5147 234.563 34.088C236.014 32.9787 237.251 31.0587 238.275 28.328C239.043 26.536 240.451 22.0987 242.499 15.016H252.739L253.251 33.832H272.835V43.688H253.379V79.656C253.379 84.4347 253.507 87.8053 253.763 89.768C254.019 91.7307 254.574 93.0107 255.427 93.608C256.28 94.12 257.774 94.376 259.907 94.376C262.04 94.376 264.259 94.1627 266.563 93.736C268.867 93.224 270.787 92.6267 272.323 91.944L274.755 99.112C272.366 100.904 268.867 102.525 264.259 103.976C259.651 105.427 255.171 106.152 250.819 106.152ZM284.125 97.448L292.573 96.424V45.992L284.381 43.688V34.856L304.221 32.168H304.605L307.805 34.728V37.544L307.421 47.912H307.805C308.402 46.2053 309.81 44.1147 312.029 41.64C314.248 39.08 317.021 36.8613 320.349 34.984C323.762 33.0213 327.432 32.04 331.357 32.04C333.234 32.04 334.856 32.296 336.221 32.808V52.008C333.661 50.216 330.546 49.32 326.877 49.32C320.648 49.32 315.229 50.984 310.621 54.312V96.296L325.469 97.448V105H284.125V97.448ZM345.527 85.032C345.527 77.2667 349.41 71.4213 357.175 67.496C365.026 63.5707 375.138 61.5653 387.511 61.48V58.536C387.511 55.0373 387.127 52.3067 386.359 50.344C385.676 48.3813 384.354 46.9307 382.391 45.992C380.514 44.968 377.74 44.456 374.071 44.456C369.89 44.456 366.135 45.0107 362.807 46.12C359.479 47.144 356.023 48.5093 352.439 50.216L348.471 42.024C349.751 40.9147 351.884 39.592 354.871 38.056C357.943 36.52 361.57 35.1973 365.751 34.088C369.932 32.8933 374.242 32.296 378.679 32.296C385.25 32.296 390.37 33.1493 394.039 34.856C397.794 36.5627 400.482 39.2933 402.103 43.048C403.724 46.8027 404.535 51.8373 404.535 58.152V97.32H411.447V104.488C409.74 104.915 407.308 105.341 404.151 105.768C400.994 106.195 398.22 106.408 395.831 106.408C392.93 106.408 390.967 105.981 389.943 105.128C389.004 104.275 388.535 102.525 388.535 99.88V96.424C386.231 98.984 383.244 101.288 379.575 103.336C375.906 105.384 371.767 106.408 367.159 106.408C363.234 106.408 359.607 105.597 356.279 103.976C353.036 102.269 350.434 99.8373 348.471 96.68C346.508 93.4373 345.527 89.5547 345.527 85.032ZM375.351 95.784C377.143 95.784 379.191 95.272 381.495 94.248C383.799 93.1387 385.804 91.816 387.511 90.28V69.288C379.831 69.288 374.071 70.6107 370.231 73.256C366.476 75.816 364.599 79.144 364.599 83.24C364.599 87.336 365.538 90.4507 367.415 92.584C369.378 94.7173 372.023 95.784 375.351 95.784ZM429.163 45.992L420.971 43.688V34.856L442.219 32.168H442.603L445.803 34.728V39.72L445.675 42.792C448.662 39.976 452.544 37.544 457.323 35.496C462.102 33.448 466.923 32.424 471.787 32.424C476.992 32.424 481.046 33.4053 483.947 35.368C486.934 37.2453 489.067 40.232 490.347 44.328C491.627 48.424 492.267 53.9707 492.267 60.968V96.296L500.075 97.32V105H467.051V97.32L473.963 96.296V60.968C473.963 56.5307 473.664 53.0747 473.067 50.6C472.47 48.04 471.36 46.2053 469.739 45.096C468.203 43.9013 465.984 43.304 463.083 43.304C458.219 43.304 453.014 45.3947 447.467 49.576V96.168L455.147 97.32V105H421.739V97.32L429.163 96.168V45.992ZM538.432 106.408C533.141 106.408 528.405 105.171 524.224 102.696C520.043 100.136 516.715 96.2107 514.24 90.92C511.765 85.6293 510.528 79.016 510.528 71.08C510.528 63.912 511.979 57.384 514.88 51.496C517.867 45.5227 522.219 40.7867 527.936 37.288C533.653 33.7893 540.523 32.04 548.544 32.04C551.787 32.04 554.859 32.3813 557.76 33.064V11.432L545.216 9.63999V2.6L571.584 0.0399933H571.968L575.552 2.728V97.192H582.464V104.488C576.32 105.768 571.243 106.408 567.232 106.408C564.501 106.408 562.539 105.939 561.344 105C560.235 104.147 559.68 102.397 559.68 99.752V96.168C557.461 99.1547 554.432 101.629 550.592 103.592C546.752 105.469 542.699 106.408 538.432 106.408ZM545.088 95.784C547.904 95.784 550.379 95.2293 552.512 94.12C554.731 92.9253 556.48 91.5173 557.76 89.896V43.304C557.163 42.4507 555.883 41.7253 553.92 41.128C552.043 40.5307 549.995 40.232 547.776 40.232C542.315 40.232 537.92 42.6213 534.592 47.4C531.349 52.0933 529.728 59.6453 529.728 70.056C529.728 78.76 531.136 85.2453 533.952 89.512C536.768 93.6933 540.48 95.784 545.088 95.784ZM636.772 19.496L626.66 17.832V9.896H655.716L693.86 67.496L701.028 82.088V19.496L690.02 17.832V9.896H721.764V17.832L711.908 19.496V105H696.42L656.612 44.456L647.652 27.56V96.04L660.58 97.32V105H626.66V97.32L636.772 96.04V19.496ZM763.586 139.56C752.151 139.56 743.874 137.768 738.754 134.184C733.634 130.6 731.074 125.736 731.074 119.592C731.074 116.093 732.226 112.765 734.53 109.608C736.919 106.536 739.778 104.232 743.106 102.696C739.181 100.392 737.218 96.7227 737.218 91.688C737.218 88.7867 738.157 86.056 740.034 83.496C741.911 80.8507 744.343 78.8027 747.33 77.352C742.637 75.56 739.138 72.8293 736.834 69.16C734.53 65.4907 733.378 61.1387 733.378 56.104C733.378 51.24 734.786 47.016 737.602 43.432C740.503 39.7627 744.343 36.9467 749.122 34.984C753.986 33.0213 759.234 32.04 764.866 32.04C774.85 32.04 782.274 33.96 787.138 37.8C788.247 36.3493 790.125 34.984 792.77 33.704C795.415 32.424 798.146 31.784 800.962 31.784H805.442V45.736H792.258C793.538 48.4667 794.178 51.368 794.178 54.44C794.263 62.2053 791.533 68.4347 785.986 73.128C780.439 77.736 772.845 80.04 763.202 80.04C759.191 80.04 755.821 79.7413 753.09 79.144C752.237 80.2533 751.554 81.448 751.042 82.728C750.615 83.9227 750.402 84.9893 750.402 85.928C750.402 88.744 751.383 90.664 753.346 91.688C755.394 92.712 759.021 93.224 764.226 93.224H777.922C795.33 93.224 804.034 99.5387 804.034 112.168C804.034 117.459 802.157 122.195 798.402 126.376C794.647 130.557 789.655 133.8 783.426 136.104C777.197 138.408 770.583 139.56 763.586 139.56ZM764.482 72.104C772.418 72.104 776.386 66.6853 776.386 55.848C776.386 50.3013 775.362 46.248 773.314 43.688C771.351 41.0427 768.322 39.72 764.226 39.72C760.215 39.72 757.101 41.0427 754.882 43.688C752.749 46.248 751.682 50.1307 751.682 55.336C751.682 66.5147 755.949 72.104 764.482 72.104ZM765.506 130.728C770.882 130.728 775.533 129.405 779.458 126.76C783.383 124.2 785.346 120.616 785.346 116.008C785.346 112.339 784.365 109.693 782.402 108.072C780.525 106.451 777.111 105.64 772.162 105.64H758.21C756.077 105.64 754.114 105.512 752.322 105.256C750.018 108.328 748.866 111.997 748.866 116.264C748.866 120.957 750.146 124.541 752.706 127.016C755.266 129.491 759.533 130.728 765.506 130.728ZM813.387 85.032C813.387 77.2667 817.27 71.4213 825.035 67.496C832.886 63.5707 842.998 61.5653 855.371 61.48V58.536C855.371 55.0373 854.987 52.3067 854.219 50.344C853.536 48.3813 852.214 46.9307 850.251 45.992C848.374 44.968 845.6 44.456 841.931 44.456C837.75 44.456 833.995 45.0107 830.667 46.12C827.339 47.144 823.883 48.5093 820.299 50.216L816.331 42.024C817.611 40.9147 819.744 39.592 822.731 38.056C825.803 36.52 829.43 35.1973 833.611 34.088C837.792 32.8933 842.102 32.296 846.539 32.296C853.11 32.296 858.23 33.1493 861.899 34.856C865.654 36.5627 868.342 39.2933 869.963 43.048C871.584 46.8027 872.395 51.8373 872.395 58.152V97.32H879.307V104.488C877.6 104.915 875.168 105.341 872.011 105.768C868.854 106.195 866.08 106.408 863.691 106.408C860.79 106.408 858.827 105.981 857.803 105.128C856.864 104.275 856.395 102.525 856.395 99.88V96.424C854.091 98.984 851.104 101.288 847.435 103.336C843.766 105.384 839.627 106.408 835.019 106.408C831.094 106.408 827.467 105.597 824.139 103.976C820.896 102.269 818.294 99.8373 816.331 96.68C814.368 93.4373 813.387 89.5547 813.387 85.032ZM843.211 95.784C845.003 95.784 847.051 95.272 849.355 94.248C851.659 93.1387 853.664 91.816 855.371 90.28V69.288C847.691 69.288 841.931 70.6107 838.091 73.256C834.336 75.816 832.459 79.144 832.459 83.24C832.459 87.336 833.398 90.4507 835.275 92.584C837.238 94.7173 839.883 95.784 843.211 95.784ZM904.063 94.504C904.746 95.528 906.282 96.5093 908.671 97.448C911.146 98.3013 913.62 98.728 916.095 98.728C920.106 98.728 923.092 97.9173 925.055 96.296C927.103 94.5893 928.127 92.3707 928.127 89.64C928.127 86.824 926.89 84.5627 924.415 82.856C921.94 81.064 917.759 78.888 911.871 76.328L908.287 74.792C902.399 72.3173 898.004 69.3307 895.103 65.832C892.202 62.3333 890.751 57.8107 890.751 52.264C890.751 48.424 891.903 45.0107 894.207 42.024C896.511 38.952 899.754 36.5627 903.935 34.856C908.116 33.1493 912.938 32.296 918.399 32.296C922.41 32.296 925.823 32.552 928.639 33.064C931.54 33.576 934.57 34.2587 937.727 35.112C939.434 35.7093 940.714 36.0507 941.567 36.136V52.904H931.455L928.511 43.176C927.999 42.3227 926.847 41.5547 925.055 40.872C923.263 40.1893 921.215 39.848 918.911 39.848C915.412 39.848 912.596 40.616 910.463 42.152C908.415 43.6027 907.391 45.6507 907.391 48.296C907.391 50.6853 908.116 52.6907 909.567 54.312C911.018 55.848 912.596 57.0427 914.303 57.896C916.01 58.7493 919.167 60.1573 923.775 62.12C928.383 64.0827 932.18 65.96 935.167 67.752C938.239 69.544 940.756 71.8907 942.719 74.792C944.767 77.608 945.791 81.064 945.791 85.16C945.791 91.4747 943.316 96.5947 938.367 100.52C933.418 104.445 926.292 106.408 916.991 106.408C912.639 106.408 908.714 106.024 905.215 105.256C901.802 104.488 897.834 103.464 893.311 102.184L890.495 101.288V84.392H901.119L904.063 94.504ZM972.998 94.504C973.681 95.528 975.217 96.5093 977.606 97.448C980.081 98.3013 982.555 98.728 985.03 98.728C989.041 98.728 992.027 97.9173 993.99 96.296C996.038 94.5893 997.062 92.3707 997.062 89.64C997.062 86.824 995.825 84.5627 993.35 82.856C990.875 81.064 986.694 78.888 980.806 76.328L977.222 74.792C971.334 72.3173 966.939 69.3307 964.038 65.832C961.137 62.3333 959.686 57.8107 959.686 52.264C959.686 48.424 960.838 45.0107 963.142 42.024C965.446 38.952 968.689 36.5627 972.87 34.856C977.051 33.1493 981.873 32.296 987.334 32.296C991.345 32.296 994.758 32.552 997.574 33.064C1000.48 33.576 1003.5 34.2587 1006.66 35.112C1008.37 35.7093 1009.65 36.0507 1010.5 36.136V52.904H1000.39L997.446 43.176C996.934 42.3227 995.782 41.5547 993.99 40.872C992.198 40.1893 990.15 39.848 987.846 39.848C984.347 39.848 981.531 40.616 979.398 42.152C977.35 43.6027 976.326 45.6507 976.326 48.296C976.326 50.6853 977.051 52.6907 978.502 54.312C979.953 55.848 981.531 57.0427 983.238 57.896C984.945 58.7493 988.102 60.1573 992.71 62.12C997.318 64.0827 1001.12 65.96 1004.1 67.752C1007.17 69.544 1009.69 71.8907 1011.65 74.792C1013.7 77.608 1014.73 81.064 1014.73 85.16C1014.73 91.4747 1012.25 96.5947 1007.3 100.52C1002.35 104.445 995.227 106.408 985.926 106.408C981.574 106.408 977.649 106.024 974.15 105.256C970.737 104.488 966.769 103.464 962.246 102.184L959.43 101.288V84.392H970.054L972.998 94.504ZM1059.98 106.408C1048.72 106.408 1040.31 103.123 1034.76 96.552C1029.3 89.896 1026.57 80.8507 1026.57 69.416C1026.57 61.736 1027.98 55.08 1030.8 49.448C1033.7 43.816 1037.75 39.5067 1042.96 36.52C1048.16 33.5333 1054.18 32.04 1061 32.04C1069.54 32.04 1076.11 34.3013 1080.72 38.824C1085.32 43.2613 1087.71 49.6187 1087.88 57.896C1087.88 63.528 1087.54 67.7093 1086.86 70.44H1045.26C1045.6 78.2053 1047.44 84.264 1050.76 88.616C1054.09 92.8827 1058.83 95.016 1064.97 95.016C1068.3 95.016 1071.71 94.4613 1075.21 93.352C1078.8 92.2427 1081.61 90.92 1083.66 89.384L1086.86 96.424C1084.56 98.8987 1080.8 101.203 1075.6 103.336C1070.48 105.384 1065.27 106.408 1059.98 106.408ZM1069.96 62.76C1070.14 60.3707 1070.22 58.536 1070.22 57.256C1070.22 45.9067 1066.42 40.232 1058.83 40.232C1054.65 40.232 1051.4 41.896 1049.1 45.224C1046.8 48.552 1045.52 54.3973 1045.26 62.76H1069.96Z" fill="#F5F5F5"/>
<path d="M1145.63 106.152C1142.98 106.152 1140.68 105.256 1138.71 103.464C1136.75 101.587 1135.77 99.24 1135.77 96.424C1135.77 93.2667 1136.88 90.7067 1139.1 88.744C1141.4 86.696 1144.18 85.672 1147.42 85.672C1150.49 85.672 1152.92 86.6533 1154.71 88.616C1156.51 90.4933 1157.4 92.7547 1157.4 95.4C1157.4 98.728 1156.29 101.373 1154.07 103.336C1151.94 105.213 1149.13 106.152 1145.63 106.152Z" fill="#393939"/>
</svg>
