<svg width="545" height="71" viewBox="0 0 545 71" fill="none" xmlns="http://www.w3.org/2000/svg">
<path d="M5.552 10.248L0.56 9.416V5.448H10.096C11.5467 5.448 13.424 5.36266 15.728 5.192C16.2827 5.14933 16.944 5.10667 17.712 5.064C18.48 5.02133 19.376 5 20.4 5C26.8427 5 31.344 5.91733 33.904 7.752C36.5067 9.544 37.808 12.232 37.808 15.816C37.808 18.9733 36.848 21.6187 34.928 23.752C33.0507 25.8427 30.576 27.1227 27.504 27.592C31.728 27.5493 35.0347 28.5093 37.424 30.472C39.856 32.4347 41.072 35.1653 41.072 38.664C41.072 43.1013 39.5147 46.664 36.4 49.352C33.2853 52.04 28.08 53.384 20.784 53.384C18.864 53.384 17.0933 53.32 15.472 53.192C15.0453 53.192 14.32 53.1493 13.296 53.064C12.272 53.0213 11.2267 53 10.16 53H0.496V49.16L5.552 48.52V10.248ZM14.832 26.184C15.3013 26.2267 16.2613 26.248 17.712 26.248H20.72C23.3227 26.248 25.264 25.4373 26.544 23.816C27.824 22.1947 28.464 19.912 28.464 16.968C28.464 14.152 27.8027 12.104 26.48 10.824C25.1573 9.544 22.96 8.904 19.888 8.904C19.0773 8.904 17.392 8.98933 14.832 9.16V26.184ZM14.832 48.776C15.8133 49.16 17.6907 49.352 20.464 49.352C24.0907 49.352 26.7147 48.4987 28.336 46.792C29.9573 45.0853 30.768 42.6107 30.768 39.368C30.768 36.2533 30.0213 34.0347 28.528 32.712C27.0773 31.3467 24.752 30.664 21.552 30.664C17.968 30.664 15.728 30.7067 14.832 30.792V48.776ZM63.413 53.704C57.781 53.704 53.5783 52.0613 50.805 48.776C48.0743 45.448 46.709 40.9253 46.709 35.208C46.709 31.368 47.413 28.04 48.821 25.224C50.2717 22.408 52.2983 20.2533 54.901 18.76C57.5037 17.2667 60.5117 16.52 63.925 16.52C68.1917 16.52 71.477 17.6507 73.781 19.912C76.085 22.1307 77.2797 25.3093 77.365 29.448C77.365 32.264 77.1943 34.3547 76.853 35.72H56.053C56.2237 39.6027 57.141 42.632 58.805 44.808C60.469 46.9413 62.837 48.008 65.909 48.008C67.573 48.008 69.2797 47.7307 71.029 47.176C72.821 46.6213 74.229 45.96 75.253 45.192L76.853 48.712C75.701 49.9493 73.8237 51.1013 71.221 52.168C68.661 53.192 66.0583 53.704 63.413 53.704ZM68.405 31.88C68.4903 30.6853 68.533 29.768 68.533 29.128C68.533 23.4533 66.6343 20.616 62.837 20.616C60.7463 20.616 59.125 21.448 57.973 23.112C56.821 24.776 56.181 27.6987 56.053 31.88H68.405ZM83.7525 49.224L87.9765 48.712V23.496L83.8805 22.344V17.928L93.8005 16.584H93.9925L95.5925 17.864V19.272L95.4005 24.456H95.5925C95.8912 23.6027 96.5952 22.5573 97.7045 21.32C98.8138 20.04 100.2 18.9307 101.864 17.992C103.571 17.0107 105.406 16.52 107.368 16.52C108.307 16.52 109.118 16.648 109.8 16.904V26.504C108.52 25.608 106.963 25.16 105.128 25.16C102.014 25.16 99.3045 25.992 97.0005 27.656V48.648L104.424 49.224V53H83.7525V49.224ZM125.909 53.576C123.221 53.576 121.237 52.9573 119.957 51.72C118.677 50.4827 118.037 48.52 118.037 45.832V22.344H113.877V19.016C114.219 18.888 114.837 18.6747 115.733 18.376C116.629 18.0347 117.312 17.7573 117.781 17.544C118.507 16.9893 119.125 16.0293 119.637 14.664C120.021 13.768 120.725 11.5493 121.749 8.008H126.869L127.125 17.416H136.917V22.344H127.189V40.328C127.189 42.7173 127.253 44.4027 127.381 45.384C127.509 46.3653 127.787 47.0053 128.213 47.304C128.64 47.56 129.387 47.688 130.453 47.688C131.52 47.688 132.629 47.5813 133.781 47.368C134.933 47.112 135.893 46.8133 136.661 46.472L137.877 50.056C136.683 50.952 134.933 51.7627 132.629 52.488C130.325 53.2133 128.085 53.576 125.909 53.576ZM142.562 49.224L146.786 48.712V23.496L142.69 22.344V17.928L152.61 16.584H152.802L154.402 17.864V19.272L154.21 24.456H154.402C154.701 23.6027 155.405 22.5573 156.514 21.32C157.624 20.04 159.01 18.9307 160.674 17.992C162.381 17.0107 164.216 16.52 166.178 16.52C167.117 16.52 167.928 16.648 168.61 16.904V26.504C167.33 25.608 165.773 25.16 163.938 25.16C160.824 25.16 158.114 25.992 155.81 27.656V48.648L163.234 49.224V53H142.562V49.224ZM173.263 43.016C173.263 39.1333 175.205 36.2107 179.087 34.248C183.013 32.2853 188.069 31.2827 194.255 31.24V29.768C194.255 28.0187 194.063 26.6533 193.679 25.672C193.338 24.6907 192.677 23.9653 191.695 23.496C190.757 22.984 189.37 22.728 187.535 22.728C185.445 22.728 183.567 23.0053 181.903 23.56C180.239 24.072 178.511 24.7547 176.719 25.608L174.735 21.512C175.375 20.9573 176.442 20.296 177.935 19.528C179.471 18.76 181.285 18.0987 183.375 17.544C185.466 16.9467 187.621 16.648 189.839 16.648C193.125 16.648 195.685 17.0747 197.519 17.928C199.397 18.7813 200.741 20.1467 201.551 22.024C202.362 23.9013 202.767 26.4187 202.767 29.576V49.16H206.223V52.744C205.37 52.9573 204.154 53.1707 202.575 53.384C200.997 53.5973 199.61 53.704 198.415 53.704C196.965 53.704 195.983 53.4907 195.471 53.064C195.002 52.6373 194.767 51.7627 194.767 50.44V48.712C193.615 49.992 192.122 51.144 190.287 52.168C188.453 53.192 186.383 53.704 184.079 53.704C182.117 53.704 180.303 53.2987 178.639 52.488C177.018 51.6347 175.717 50.4187 174.735 48.84C173.754 47.2187 173.263 45.2773 173.263 43.016ZM188.175 48.392C189.071 48.392 190.095 48.136 191.247 47.624C192.399 47.0693 193.402 46.408 194.255 45.64V35.144C190.415 35.144 187.535 35.8053 185.615 37.128C183.738 38.408 182.799 40.072 182.799 42.12C182.799 44.168 183.269 45.7253 184.207 46.792C185.189 47.8587 186.511 48.392 188.175 48.392ZM215.081 23.496L210.985 22.344V17.928L221.609 16.584H221.801L223.401 17.864V20.36L223.337 21.896C224.831 20.488 226.772 19.272 229.161 18.248C231.551 17.224 233.961 16.712 236.393 16.712C238.996 16.712 241.023 17.2027 242.473 18.184C243.967 19.1227 245.033 20.616 245.673 22.664C246.313 24.712 246.633 27.4853 246.633 30.984V48.648L250.537 49.16V53H234.025V49.16L237.481 48.648V30.984C237.481 28.7653 237.332 27.0373 237.033 25.8C236.735 24.52 236.18 23.6027 235.369 23.048C234.601 22.4507 233.492 22.152 232.041 22.152C229.609 22.152 227.007 23.1973 224.233 25.288V48.584L228.073 49.16V53H211.369V49.16L215.081 48.584V23.496ZM269.716 53.704C267.071 53.704 264.703 53.0853 262.612 51.848C260.521 50.568 258.857 48.6053 257.62 45.96C256.383 43.3147 255.764 40.008 255.764 36.04C255.764 32.456 256.489 29.192 257.94 26.248C259.433 23.2613 261.609 20.8933 264.468 19.144C267.327 17.3947 270.761 16.52 274.772 16.52C276.393 16.52 277.929 16.6907 279.38 17.032V6.216L273.108 5.32V1.8L286.292 0.519997H286.484L288.276 1.864V49.096H291.732V52.744C288.66 53.384 286.121 53.704 284.116 53.704C282.751 53.704 281.769 53.4693 281.172 53C280.617 52.5733 280.34 51.6987 280.34 50.376V48.584C279.231 50.0773 277.716 51.3147 275.796 52.296C273.876 53.2347 271.849 53.704 269.716 53.704ZM273.044 48.392C274.452 48.392 275.689 48.1147 276.756 47.56C277.865 46.9627 278.74 46.2587 279.38 45.448V22.152C279.081 21.7253 278.441 21.3627 277.46 21.064C276.521 20.7653 275.497 20.616 274.388 20.616C271.657 20.616 269.46 21.8107 267.796 24.2C266.175 26.5467 265.364 30.3227 265.364 35.528C265.364 39.88 266.068 43.1227 267.476 45.256C268.884 47.3467 270.74 48.392 273.044 48.392ZM318.886 10.248L313.83 9.416V5.448H328.358L347.43 34.248L351.014 41.544V10.248L345.51 9.416V5.448H361.382V9.416L356.454 10.248V53H348.71L328.806 22.728L324.326 14.28V48.52L330.79 49.16V53H313.83V49.16L318.886 48.52V10.248ZM382.293 70.28C376.576 70.28 372.437 69.384 369.877 67.592C367.317 65.8 366.037 63.368 366.037 60.296C366.037 58.5467 366.613 56.8827 367.765 55.304C368.96 53.768 370.389 52.616 372.053 51.848C370.09 50.696 369.109 48.8613 369.109 46.344C369.109 44.8933 369.578 43.528 370.517 42.248C371.456 40.9253 372.672 39.9013 374.165 39.176C371.818 38.28 370.069 36.9147 368.917 35.08C367.765 33.2453 367.189 31.0693 367.189 28.552C367.189 26.12 367.893 24.008 369.301 22.216C370.752 20.3813 372.672 18.9733 375.061 17.992C377.493 17.0107 380.117 16.52 382.933 16.52C387.925 16.52 391.637 17.48 394.069 19.4C394.624 18.6747 395.562 17.992 396.885 17.352C398.208 16.712 399.573 16.392 400.981 16.392H403.221V23.368H396.629C397.269 24.7333 397.589 26.184 397.589 27.72C397.632 31.6027 396.266 34.7173 393.493 37.064C390.72 39.368 386.922 40.52 382.101 40.52C380.096 40.52 378.41 40.3707 377.045 40.072C376.618 40.6267 376.277 41.224 376.021 41.864C375.808 42.4613 375.701 42.9947 375.701 43.464C375.701 44.872 376.192 45.832 377.173 46.344C378.197 46.856 380.01 47.112 382.613 47.112H389.461C398.165 47.112 402.517 50.2693 402.517 56.584C402.517 59.2293 401.578 61.5973 399.701 63.688C397.824 65.7787 395.328 67.4 392.213 68.552C389.098 69.704 385.792 70.28 382.293 70.28ZM382.741 36.552C386.709 36.552 388.693 33.8427 388.693 28.424C388.693 25.6507 388.181 23.624 387.157 22.344C386.176 21.0213 384.661 20.36 382.613 20.36C380.608 20.36 379.05 21.0213 377.941 22.344C376.874 23.624 376.341 25.5653 376.341 28.168C376.341 33.7573 378.474 36.552 382.741 36.552ZM383.253 65.864C385.941 65.864 388.266 65.2027 390.229 63.88C392.192 62.6 393.173 60.808 393.173 58.504C393.173 56.6693 392.682 55.3467 391.701 54.536C390.762 53.7253 389.056 53.32 386.581 53.32H379.605C378.538 53.32 377.557 53.256 376.661 53.128C375.509 54.664 374.933 56.4987 374.933 58.632C374.933 60.9787 375.573 62.7707 376.853 64.008C378.133 65.2453 380.266 65.864 383.253 65.864ZM407.193 43.016C407.193 39.1333 409.135 36.2107 413.017 34.248C416.943 32.2853 421.999 31.2827 428.185 31.24V29.768C428.185 28.0187 427.993 26.6533 427.609 25.672C427.268 24.6907 426.607 23.9653 425.625 23.496C424.687 22.984 423.3 22.728 421.465 22.728C419.375 22.728 417.497 23.0053 415.833 23.56C414.169 24.072 412.441 24.7547 410.649 25.608L408.665 21.512C409.305 20.9573 410.372 20.296 411.865 19.528C413.401 18.76 415.215 18.0987 417.305 17.544C419.396 16.9467 421.551 16.648 423.769 16.648C427.055 16.648 429.615 17.0747 431.449 17.928C433.327 18.7813 434.671 20.1467 435.481 22.024C436.292 23.9013 436.697 26.4187 436.697 29.576V49.16H440.153V52.744C439.3 52.9573 438.084 53.1707 436.505 53.384C434.927 53.5973 433.54 53.704 432.345 53.704C430.895 53.704 429.913 53.4907 429.401 53.064C428.932 52.6373 428.697 51.7627 428.697 50.44V48.712C427.545 49.992 426.052 51.144 424.217 52.168C422.383 53.192 420.313 53.704 418.009 53.704C416.047 53.704 414.233 53.2987 412.569 52.488C410.948 51.6347 409.647 50.4187 408.665 48.84C407.684 47.2187 407.193 45.2773 407.193 43.016ZM422.105 48.392C423.001 48.392 424.025 48.136 425.177 47.624C426.329 47.0693 427.332 46.408 428.185 45.64V35.144C424.345 35.144 421.465 35.8053 419.545 37.128C417.668 38.408 416.729 40.072 416.729 42.12C416.729 44.168 417.199 45.7253 418.137 46.792C419.119 47.8587 420.441 48.392 422.105 48.392ZM452.531 47.752C452.873 48.264 453.641 48.7547 454.835 49.224C456.073 49.6507 457.31 49.864 458.547 49.864C460.553 49.864 462.046 49.4587 463.027 48.648C464.051 47.7947 464.563 46.6853 464.563 45.32C464.563 43.912 463.945 42.7813 462.707 41.928C461.47 41.032 459.379 39.944 456.435 38.664L454.643 37.896C451.699 36.6587 449.502 35.1653 448.051 33.416C446.601 31.6667 445.875 29.4053 445.875 26.632C445.875 24.712 446.451 23.0053 447.603 21.512C448.755 19.976 450.377 18.7813 452.467 17.928C454.558 17.0747 456.969 16.648 459.699 16.648C461.705 16.648 463.411 16.776 464.819 17.032C466.27 17.288 467.785 17.6293 469.363 18.056C470.217 18.3547 470.857 18.5253 471.283 18.568V26.952H466.227L464.755 22.088C464.499 21.6613 463.923 21.2773 463.027 20.936C462.131 20.5947 461.107 20.424 459.955 20.424C458.206 20.424 456.798 20.808 455.731 21.576C454.707 22.3013 454.195 23.3253 454.195 24.648C454.195 25.8427 454.558 26.8453 455.283 27.656C456.009 28.424 456.798 29.0213 457.651 29.448C458.505 29.8747 460.083 30.5787 462.387 31.56C464.691 32.5413 466.59 33.48 468.083 34.376C469.619 35.272 470.878 36.4453 471.859 37.896C472.883 39.304 473.395 41.032 473.395 43.08C473.395 46.2373 472.158 48.7973 469.683 50.76C467.209 52.7227 463.646 53.704 458.995 53.704C456.819 53.704 454.857 53.512 453.107 53.128C451.401 52.744 449.417 52.232 447.155 51.592L445.747 51.144V42.696H451.059L452.531 47.752ZM486.999 47.752C487.34 48.264 488.108 48.7547 489.303 49.224C490.54 49.6507 491.778 49.864 493.015 49.864C495.02 49.864 496.514 49.4587 497.495 48.648C498.519 47.7947 499.031 46.6853 499.031 45.32C499.031 43.912 498.412 42.7813 497.175 41.928C495.938 41.032 493.847 39.944 490.903 38.664L489.111 37.896C486.167 36.6587 483.97 35.1653 482.519 33.416C481.068 31.6667 480.343 29.4053 480.343 26.632C480.343 24.712 480.919 23.0053 482.071 21.512C483.223 19.976 484.844 18.7813 486.935 17.928C489.026 17.0747 491.436 16.648 494.167 16.648C496.172 16.648 497.879 16.776 499.287 17.032C500.738 17.288 502.252 17.6293 503.831 18.056C504.684 18.3547 505.324 18.5253 505.751 18.568V26.952H500.695L499.223 22.088C498.967 21.6613 498.391 21.2773 497.495 20.936C496.599 20.5947 495.575 20.424 494.423 20.424C492.674 20.424 491.266 20.808 490.199 21.576C489.175 22.3013 488.663 23.3253 488.663 24.648C488.663 25.8427 489.026 26.8453 489.751 27.656C490.476 28.424 491.266 29.0213 492.119 29.448C492.972 29.8747 494.551 30.5787 496.855 31.56C499.159 32.5413 501.058 33.48 502.551 34.376C504.087 35.272 505.346 36.4453 506.327 37.896C507.351 39.304 507.863 41.032 507.863 43.08C507.863 46.2373 506.626 48.7973 504.151 50.76C501.676 52.7227 498.114 53.704 493.463 53.704C491.287 53.704 489.324 53.512 487.575 53.128C485.868 52.744 483.884 52.232 481.623 51.592L480.215 51.144V42.696H485.527L486.999 47.752ZM530.49 53.704C524.858 53.704 520.656 52.0613 517.882 48.776C515.152 45.448 513.786 40.9253 513.786 35.208C513.786 31.368 514.49 28.04 515.898 25.224C517.349 22.408 519.376 20.2533 521.978 18.76C524.581 17.2667 527.589 16.52 531.002 16.52C535.269 16.52 538.554 17.6507 540.858 19.912C543.162 22.1307 544.357 25.3093 544.442 29.448C544.442 32.264 544.272 34.3547 543.93 35.72H523.13C523.301 39.6027 524.218 42.632 525.882 44.808C527.546 46.9413 529.914 48.008 532.986 48.008C534.65 48.008 536.357 47.7307 538.106 47.176C539.898 46.6213 541.306 45.96 542.33 45.192L543.93 48.712C542.778 49.9493 540.901 51.1013 538.298 52.168C535.738 53.192 533.136 53.704 530.49 53.704ZM535.482 31.88C535.568 30.6853 535.61 29.768 535.61 29.128C535.61 23.4533 533.712 20.616 529.914 20.616C527.824 20.616 526.202 21.448 525.05 23.112C523.898 24.776 523.258 27.6987 523.13 31.88H535.482Z" fill="#F5F5F5"/>
</svg>
