<svg width="246" height="132" viewBox="0 0 246 132" fill="none" xmlns="http://www.w3.org/2000/svg">
<path d="M5.3 101V96.6C7.5 96.5333 9.06667 96.1 10 95.3C11 94.4333 11.6333 93.1667 11.9 91.5C12.1667 89.8333 12.3 87.7333 12.3 85.2V44.4C12.3 42.6 12.3333 41 12.4 39.6C12.4667 38.1333 12.5333 36.9667 12.6 36.1C11.4667 36.1667 10.2333 36.2333 8.9 36.3C7.56667 36.3667 6.36667 36.4333 5.3 36.5V31C9.3 30.9333 13.3 30.9 17.3 30.9C21.3 30.8333 25.4 30.8 29.6 30.8C37.4667 30.8 43.6333 32.2333 48.1 35.1C52.5667 37.9 54.7 42.3 54.5 48.3C54.4333 50.3667 53.8 52.4333 52.6 54.5C51.4667 56.5 49.7333 58.3 47.4 59.9C45.0667 61.4333 42.1667 62.5667 38.7 63.3V63.5C45.8333 63.8333 51.1667 65.7 54.7 69.1C58.2333 72.4333 60 76.5 60 81.3C60 85.4333 58.9333 89 56.8 92C54.7333 94.9333 51.9 97.1667 48.3 98.7C44.7667 100.233 40.7 101 36.1 101H5.3ZM22.6 96C23.7333 96 24.9667 96.0333 26.3 96.1C27.6333 96.1 28.9 96.1 30.1 96.1C31.3667 96.1 32.3 96.1 32.9 96.1C37.7 96.0333 41.4667 94.7333 44.2 92.2C46.9333 89.6667 48.3 86.1333 48.3 81.6C48.3 77.8667 47.5333 74.9667 46 72.9C44.5333 70.7667 42.6 69.2667 40.2 68.4C37.8 67.5333 35.2333 67.1 32.5 67.1C30.6333 67.1 28.9333 67.1333 27.4 67.2C25.9333 67.2 24.4333 67.2333 22.9 67.3V87.8C22.9 89.6 22.8667 91.2 22.8 92.6C22.8 94 22.7333 95.1333 22.6 96ZM22.9 62.4L29.5 62.2C32.9667 62.1333 35.7 61.4 37.7 60C39.7667 58.6 41.2333 56.8 42.1 54.6C42.9667 52.4 43.3667 50.1 43.3 47.7C43.3 44.3667 42.6 41.8333 41.2 40.1C39.8 38.3667 38.0667 37.1667 36 36.5C33.9333 35.8333 31.9 35.5 29.9 35.5C28.0333 35.5 26.6 35.7667 25.6 36.3C24.6 36.8333 23.9 37.7667 23.5 39.1C23.1 40.3667 22.9 42.2667 22.9 44.8V62.4Z" fill="white"/>
<path d="M62.7866 85.0782C62.7866 91.628 57.6401 96.9376 42.7155 96.9376C19.1243 96.9376 24.7029 79.7686 24.7029 73.2189C24.7029 66.6691 19.1243 73.2189 42.7155 73.2189C66.3066 73.2189 62.7866 78.5285 62.7866 85.0782Z" fill="black"/>
<path d="M58.1794 95.6875C58.0994 95.2342 58.0461 94.8342 58.0194 94.4875C57.9927 94.1408 57.9527 93.7808 57.8994 93.4075C56.9927 94.3142 56.0061 95.0342 54.9394 95.5675C53.8994 96.0742 52.7927 96.3275 51.6194 96.3275C49.5927 96.3275 48.0861 95.8742 47.0994 94.9675C46.1127 94.0342 45.6194 92.9008 45.6194 91.5675C45.6194 90.3408 45.9927 89.2875 46.7394 88.4075C47.5127 87.5008 48.4994 86.7675 49.6994 86.2075C50.9261 85.6208 52.2461 85.1942 53.6594 84.9275C55.0994 84.6342 56.4861 84.5008 57.8194 84.5275V82.0475C57.8194 81.1142 57.7394 80.2342 57.5794 79.4075C57.4194 78.5808 57.0727 77.9008 56.5394 77.3675C56.0061 76.8342 55.1527 76.5542 53.9794 76.5275C53.2061 76.5008 52.4061 76.6475 51.5794 76.9675C50.7794 77.2875 50.1927 77.8342 49.8194 78.6075C50.0327 78.8208 50.1661 79.0742 50.2194 79.3675C50.2994 79.6342 50.3394 79.8875 50.3394 80.1275C50.3394 80.4475 50.2061 80.8208 49.9394 81.2475C49.6727 81.6475 49.2061 81.8342 48.5394 81.8075C47.9794 81.8075 47.5527 81.6208 47.2594 81.2475C46.9661 80.8475 46.8194 80.3808 46.8194 79.8475C46.8194 78.9408 47.1527 78.1275 47.8194 77.4075C48.5127 76.6875 49.4594 76.1142 50.6594 75.6875C51.8594 75.2608 53.2194 75.0475 54.7394 75.0475C56.9794 75.0475 58.6327 75.6475 59.6994 76.8475C60.7661 78.0208 61.2861 79.8875 61.2594 82.4475C61.2594 83.4342 61.2594 84.4342 61.2594 85.4475C61.2594 86.4342 61.2461 87.4342 61.2194 88.4475C61.2194 89.4342 61.2194 90.4342 61.2194 91.4475C61.2194 91.8742 61.2061 92.3008 61.1794 92.7275C61.1527 93.1542 61.1127 93.6342 61.0594 94.1675C61.5394 94.1408 62.0061 94.1142 62.4594 94.0875C62.9394 94.0608 63.4194 94.0342 63.8994 94.0075V95.6875H58.1794ZM57.8194 85.8875C56.9127 85.9142 55.9527 86.0342 54.9394 86.2475C53.9527 86.4342 53.0327 86.7275 52.1794 87.1275C51.3527 87.5275 50.6727 88.0608 50.1394 88.7275C49.6327 89.3675 49.3927 90.1542 49.4194 91.0875C49.4727 92.0742 49.7927 92.8208 50.3794 93.3275C50.9927 93.8075 51.7127 94.0475 52.5394 94.0475C53.6327 94.0475 54.5794 93.8475 55.3794 93.4475C56.2061 93.0208 57.0194 92.4342 57.8194 91.6875C57.7927 91.3942 57.7794 91.0742 57.7794 90.7275C57.7794 90.3808 57.7794 90.0208 57.7794 89.6475C57.7794 89.5142 57.7794 89.0875 57.7794 88.3675C57.8061 87.6475 57.8194 86.8208 57.8194 85.8875ZM74.2444 94.4875C75.0711 94.4875 75.6444 94.2875 75.9644 93.8875C76.2844 93.4608 76.4711 92.8875 76.5244 92.1675C76.5777 91.4208 76.6044 90.5675 76.6044 89.6075V70.6875C76.6044 70.2608 76.6044 69.8608 76.6044 69.4875C76.6311 69.0875 76.6711 68.6208 76.7244 68.0875C76.2444 68.1142 75.7644 68.1408 75.2844 68.1675C74.8311 68.1942 74.3644 68.2208 73.8844 68.2475V66.5675C75.0577 66.5675 75.9644 66.5142 76.6044 66.4075C77.2711 66.3008 77.7644 66.1675 78.0844 66.0075C78.4311 65.8475 78.6977 65.6742 78.8844 65.4875H80.0444L80.0844 91.4475C80.0844 91.9808 80.0711 92.4608 80.0444 92.8875C80.0177 93.2875 79.9644 93.7142 79.8844 94.1675C80.3111 94.1408 80.7244 94.1275 81.1244 94.1275C81.5511 94.1008 81.9777 94.0742 82.4044 94.0475V95.6875H74.2444V94.4875ZM103.463 96.3275C101.596 96.3275 99.9028 95.9008 98.3828 95.0475C96.8628 94.1675 95.6495 92.9675 94.7428 91.4475C93.8628 89.9008 93.4228 88.1408 93.4228 86.1675C93.4228 84.0608 93.8628 82.1675 94.7428 80.4875C95.6228 78.8075 96.8228 77.4875 98.3428 76.5275C99.8628 75.5408 101.57 75.0475 103.463 75.0475C105.33 75.0475 107.023 75.5008 108.543 76.4075C110.063 77.2875 111.276 78.4875 112.183 80.0075C113.09 81.5275 113.543 83.2608 113.543 85.2075C113.543 87.2608 113.09 89.1408 112.183 90.8475C111.303 92.5275 110.103 93.8608 108.583 94.8475C107.063 95.8342 105.356 96.3275 103.463 96.3275ZM103.783 94.7275C105.196 94.7275 106.316 94.3275 107.143 93.5275C107.97 92.7275 108.556 91.6875 108.903 90.4075C109.276 89.1275 109.463 87.7808 109.463 86.3675C109.463 85.1675 109.343 83.9942 109.103 82.8475C108.89 81.6742 108.543 80.6208 108.063 79.6875C107.583 78.7275 106.956 77.9675 106.183 77.4075C105.436 76.8475 104.53 76.5675 103.463 76.5675C102.076 76.5675 100.943 76.9675 100.063 77.7675C99.1828 78.5675 98.5295 79.6075 98.1028 80.8875C97.7028 82.1675 97.5028 83.5408 97.5028 85.0075C97.5028 86.6608 97.7295 88.2342 98.1828 89.7275C98.6362 91.1942 99.3295 92.3942 100.263 93.3275C101.196 94.2608 102.37 94.7275 103.783 94.7275ZM133.381 96.3275C131.941 96.3275 130.728 96.0608 129.741 95.5275C128.781 94.9942 128.048 94.0875 127.541 92.8075C127.061 91.5275 126.821 89.7942 126.821 87.6075V80.4875C126.821 80.0608 126.821 79.6342 126.821 79.2075C126.848 78.7808 126.901 78.3408 126.981 77.8875C126.528 77.9142 126.061 77.9408 125.581 77.9675C125.128 77.9675 124.675 77.9808 124.221 78.0075V76.3675H125.461C126.608 76.3675 127.435 76.2608 127.941 76.0475C128.475 75.8075 128.888 75.5542 129.181 75.2875H130.341V87.4875C130.341 89.7808 130.661 91.5008 131.301 92.6475C131.968 93.7675 133.088 94.3142 134.661 94.2875C135.675 94.2608 136.635 93.9542 137.541 93.3675C138.475 92.7542 139.221 92.0342 139.781 91.2075V80.9275C139.781 80.2875 139.795 79.7408 139.821 79.2875C139.848 78.8075 139.901 78.3408 139.981 77.8875C139.501 77.9142 139.021 77.9408 138.541 77.9675C138.061 77.9675 137.581 77.9808 137.101 78.0075V76.3675H138.341C139.488 76.3675 140.315 76.2608 140.821 76.0475C141.355 75.8075 141.768 75.5542 142.061 75.2875H143.221L143.181 90.4075C143.181 90.8342 143.168 91.4342 143.141 92.2075C143.115 92.9808 143.075 93.6342 143.021 94.1675C143.501 94.1408 143.981 94.1142 144.461 94.0875C144.941 94.0608 145.421 94.0342 145.901 94.0075V95.6875H140.181C140.101 95.2342 140.035 94.8075 139.981 94.4075C139.955 94.0075 139.928 93.6342 139.901 93.2875C139.075 94.1142 138.075 94.8342 136.901 95.4475C135.728 96.0342 134.555 96.3275 133.381 96.3275ZM166.448 106.528C164.048 106.528 162.115 106.261 160.648 105.728C159.182 105.194 158.115 104.514 157.448 103.688C156.782 102.861 156.448 102.008 156.448 101.128C156.448 100.301 156.635 99.5675 157.008 98.9275C157.408 98.3142 157.888 97.7808 158.448 97.3275C159.035 96.8742 159.595 96.5408 160.128 96.3275C159.275 96.0342 158.595 95.6475 158.088 95.1675C157.608 94.6608 157.368 93.9942 157.368 93.1675C157.368 92.2342 157.742 91.3675 158.488 90.5675C159.235 89.7408 160.195 89.2342 161.368 89.0475C160.142 88.4608 159.155 87.6475 158.408 86.6075C157.688 85.5675 157.328 84.3542 157.328 82.9675C157.328 81.3675 157.742 79.9808 158.568 78.8075C159.395 77.6075 160.448 76.6875 161.728 76.0475C163.035 75.3808 164.382 75.0475 165.768 75.0475C166.648 75.0475 167.528 75.1808 168.408 75.4475C169.288 75.6875 170.102 76.0475 170.848 76.5275C171.115 75.7808 171.488 75.1142 171.968 74.5275C172.475 73.9408 173.048 73.4875 173.688 73.1675C174.328 72.8208 174.995 72.6475 175.688 72.6475C176.382 72.6475 176.902 72.8342 177.248 73.2075C177.622 73.5542 177.808 74.0342 177.808 74.6475C177.808 74.8342 177.755 75.0608 177.648 75.3275C177.542 75.5942 177.355 75.8208 177.088 76.0075C176.848 76.1942 176.515 76.2875 176.088 76.2875C175.635 76.2875 175.262 76.1542 174.968 75.8875C174.675 75.6208 174.488 75.2875 174.408 74.8875C173.742 74.9942 173.222 75.3142 172.848 75.8475C172.475 76.3542 172.222 76.9142 172.088 77.5275C172.728 78.1142 173.235 78.8208 173.608 79.6475C174.008 80.4742 174.208 81.3542 174.208 82.2875C174.208 83.7808 173.808 85.1142 173.008 86.2875C172.235 87.4608 171.208 88.3808 169.928 89.0475C168.648 89.6875 167.262 90.0075 165.768 90.0075C165.262 90.0075 164.822 89.9808 164.448 89.9275C164.075 89.8475 163.622 89.8075 163.088 89.8075C162.102 89.8075 161.302 90.0475 160.688 90.5275C160.075 91.0075 159.862 91.5808 160.048 92.2475C160.262 92.8875 160.915 93.3008 162.008 93.4875C163.102 93.6475 164.568 93.7675 166.408 93.8475C168.462 93.9275 170.222 94.1675 171.688 94.5675C173.155 94.9675 174.275 95.5808 175.048 96.4075C175.848 97.2608 176.248 98.4075 176.248 99.8475C176.248 100.914 175.955 101.861 175.368 102.688C174.808 103.541 174.048 104.248 173.088 104.808C172.155 105.368 171.102 105.794 169.928 106.088C168.782 106.381 167.622 106.528 166.448 106.528ZM166.408 104.968C168.702 104.968 170.488 104.541 171.768 103.688C173.048 102.834 173.688 101.834 173.688 100.688C173.688 99.7008 173.355 98.9408 172.688 98.4075C172.022 97.9008 171.115 97.5408 169.968 97.3275C168.822 97.1408 167.502 97.0342 166.008 97.0075C165.288 96.9808 164.582 96.9408 163.888 96.8875C163.195 96.8608 162.528 96.7942 161.888 96.6875C161.168 97.1675 160.608 97.7542 160.208 98.4475C159.808 99.1408 159.608 99.8742 159.608 100.648C159.608 101.954 160.222 102.994 161.448 103.768C162.702 104.568 164.355 104.968 166.408 104.968ZM165.888 88.5675C166.875 88.5675 167.688 88.3275 168.328 87.8475C168.995 87.3675 169.488 86.7142 169.808 85.8875C170.155 85.0608 170.328 84.1275 170.328 83.0875C170.328 81.9142 170.155 80.8208 169.808 79.8075C169.462 78.7942 168.942 77.9808 168.248 77.3675C167.582 76.7542 166.728 76.4475 165.688 76.4475C164.248 76.4475 163.128 76.9942 162.328 78.0875C161.555 79.1542 161.168 80.4875 161.168 82.0875C161.168 83.3675 161.355 84.5008 161.728 85.4875C162.102 86.4475 162.635 87.2075 163.328 87.7675C164.048 88.3008 164.902 88.5675 165.888 88.5675ZM196.643 96.3275C194.776 96.3275 193.083 95.9008 191.563 95.0475C190.043 94.1675 188.829 92.9675 187.923 91.4475C187.043 89.9008 186.603 88.1408 186.603 86.1675C186.603 84.0608 187.043 82.1675 187.923 80.4875C188.803 78.8075 190.003 77.4875 191.523 76.5275C193.043 75.5408 194.749 75.0475 196.643 75.0475C198.509 75.0475 200.203 75.5008 201.723 76.4075C203.243 77.2875 204.456 78.4875 205.363 80.0075C206.269 81.5275 206.723 83.2608 206.723 85.2075C206.723 87.2608 206.269 89.1408 205.363 90.8475C204.483 92.5275 203.283 93.8608 201.763 94.8475C200.243 95.8342 198.536 96.3275 196.643 96.3275ZM196.963 94.7275C198.376 94.7275 199.496 94.3275 200.323 93.5275C201.149 92.7275 201.736 91.6875 202.083 90.4075C202.456 89.1275 202.643 87.7808 202.643 86.3675C202.643 85.1675 202.523 83.9942 202.283 82.8475C202.069 81.6742 201.723 80.6208 201.243 79.6875C200.763 78.7275 200.136 77.9675 199.363 77.4075C198.616 76.8475 197.709 76.5675 196.643 76.5675C195.256 76.5675 194.123 76.9675 193.243 77.7675C192.363 78.5675 191.709 79.6075 191.283 80.8875C190.883 82.1675 190.683 83.5408 190.683 85.0075C190.683 86.6608 190.909 88.2342 191.363 89.7275C191.816 91.1942 192.509 92.3942 193.443 93.3275C194.376 94.2608 195.549 94.7275 196.963 94.7275ZM226.561 96.3275C225.121 96.3275 223.908 96.0608 222.921 95.5275C221.961 94.9942 221.228 94.0875 220.721 92.8075C220.241 91.5275 220.001 89.7942 220.001 87.6075V80.4875C220.001 80.0608 220.001 79.6342 220.001 79.2075C220.028 78.7808 220.081 78.3408 220.161 77.8875C219.708 77.9142 219.241 77.9408 218.761 77.9675C218.308 77.9675 217.854 77.9808 217.401 78.0075V76.3675H218.641C219.788 76.3675 220.614 76.2608 221.121 76.0475C221.654 75.8075 222.068 75.5542 222.361 75.2875H223.521V87.4875C223.521 89.7808 223.841 91.5008 224.481 92.6475C225.148 93.7675 226.268 94.3142 227.841 94.2875C228.854 94.2608 229.814 93.9542 230.721 93.3675C231.654 92.7542 232.401 92.0342 232.961 91.2075V80.9275C232.961 80.2875 232.974 79.7408 233.001 79.2875C233.028 78.8075 233.081 78.3408 233.161 77.8875C232.681 77.9142 232.201 77.9408 231.721 77.9675C231.241 77.9675 230.761 77.9808 230.281 78.0075V76.3675H231.521C232.668 76.3675 233.494 76.2608 234.001 76.0475C234.534 75.8075 234.948 75.5542 235.241 75.2875H236.401L236.361 90.4075C236.361 90.8342 236.348 91.4342 236.321 92.2075C236.294 92.9808 236.254 93.6342 236.201 94.1675C236.681 94.1408 237.161 94.1142 237.641 94.0875C238.121 94.0608 238.601 94.0342 239.081 94.0075V95.6875H233.361C233.281 95.2342 233.214 94.8075 233.161 94.4075C233.134 94.0075 233.108 93.6342 233.081 93.2875C232.254 94.1142 231.254 94.8342 230.081 95.4475C228.908 96.0342 227.734 96.3275 226.561 96.3275Z" fill="white"/>
</svg>
